# xmcd
#
# Track frame offsets:
#	150
#	14297
#	28985
#	42800
#	57236
#	71810
#	86265
#	97915
#	111902
#	125716
#	139362
#	153507
#	167272
#	180625
#	195087
#	206617
#	217714
#	231206
#	245905
#	257725
#	271093
#	286476
#	299742
#	313605
#	336614
#
# Disc length: 4647 seconds
#
# Revision: 1
# Processed by: cddbd v1.5.2PL0 Copyright (c) Steve Scherf et al.
# Submitted via: audiograbber 1.83.01
#
DISCID=77122519
DTITLE=Milestones of a Legend - CD 7 - Lead Belly
DYEAR=1900
DGENRE=Blues
TTITLE0=Midnight Special
TTITLE1=John Hardy
TTITLE2=Where Did You Sleep Last Night?
TTITLE3=T. B. Blues
TTITLE4=Easy Rider
TTITLE5=Alberta
TTITLE6=Rock Island Line
TTITLE7=Alabama Bound
TTITLE8=You Can't Lose-A Me Cholly
TTITLE9=New York City
TTITLE10=Roberta
TTITLE11=Leaving Blues
TTITLE12=When the Boys Were out on the Western Plains
TTITLE13=I'm on My Last Go Round
TTITLE14=Mother's Blues
TTITLE15=Pretty Flowers in My Back Yard
TTITLE16=Pick a Bale of Cotton
TTITLE17=Sail on Little Girl
TTITLE18=Fannin Street
TTITLE19=Packing Trunk Blues
TTITLE20=The Bourgeois Blues
TTITLE21=Good Morning Blues
TTITLE22=The Boll Weevil
TTITLE23=Shorty George
TTITLE24=Goodnight Irene
EXTD=
EXTT0=
EXTT1=
EXTT2=
EXTT3=
EXTT4=
EXTT5=
EXTT6=
EXTT7=
EXTT8=
EXTT9=
EXTT10=
EXTT11=
EXTT12=
EXTT13=
EXTT14=
EXTT15=
EXTT16=
EXTT17=
EXTT18=
EXTT19=
EXTT20=
EXTT21=
EXTT22=
EXTT23=
EXTT24=
PLAYORDER=
